<svg width="18" height="14" viewBox="0 0 18 14" fill="white" xmlns="http://www.w3.org/2000/svg">
<path d="M17.07 6.24986H2.8899L7.5999 1.49996C7.7355 1.36436 7.8192 1.17686 7.8192 0.969859C7.8192 0.762859 7.7355 0.575659 7.5999 0.439759C7.4643 0.304159 7.2768 0.220459 7.0698 0.220459C6.8628 0.220459 6.6756 0.304159 6.5397 0.439759L0.539701 6.49976C0.409801 6.62696 0.329102 6.80426 0.329102 7.00016C0.329102 7.01066 0.329402 7.02086 0.329702 7.03106V7.02956C0.330002 7.23656 0.414001 7.42406 0.549601 7.55966L6.6096 13.5597C6.7422 13.6956 6.9273 13.7796 7.1319 13.7796C7.1346 13.7796 7.1373 13.7796 7.14 13.7796H7.1397C7.5492 13.7736 7.8792 13.4403 7.8792 13.0296C7.8792 12.8226 7.7955 12.6351 7.6599 12.4995L2.8599 7.74956H17.07C17.4843 7.74956 17.82 7.41386 17.82 6.99956C17.82 6.58526 17.4843 6.24956 17.07 6.24956V6.24986Z" fill="#3C4852"/>
</svg>
