<svg width="12" height="12" viewBox="0 0 12 12" fill="none" xmlns="http://www.w3.org/2000/svg">
<path d="M12 6C12 9.31365 9.31365 12 6 12C2.68635 12 0 9.31365 0 6C0 2.68635 2.68635 0 6 0C9.31365 0 12 2.68635 12 6ZM4.69965 8.5599C4.76805 8.5884 4.84155 8.6028 4.91565 8.6025C4.9923 8.60235 5.0679 8.58585 5.1378 8.5542C5.2056 8.52345 5.26635 8.4792 5.3163 8.424L9.3978 4.3476C9.5031 4.24215 9.56235 4.0992 9.56235 3.9501C9.56235 3.80145 9.50355 3.6588 9.3987 3.55335C9.34695 3.5004 9.28515 3.4584 9.2169 3.4296C9.14835 3.40065 9.07455 3.3858 9.00015 3.3858C8.92575 3.3858 8.8521 3.40065 8.7834 3.4296C8.7153 3.4584 8.6535 3.5004 8.60175 3.5532L4.91475 7.2354L3.39285 5.72295C3.2862 5.6235 3.1452 5.5695 2.9994 5.57205C2.8536 5.5746 2.7147 5.6337 2.61165 5.73675C2.5086 5.8398 2.4495 5.97885 2.44695 6.1245C2.4444 6.27015 2.4984 6.4113 2.59785 6.51795L2.6001 6.52035L4.5171 8.43735C4.56915 8.49 4.63125 8.5317 4.6995 8.56005L4.69965 8.5599Z" fill="#2D81F7"/>
</svg>
