<svg width="26" height="43" viewBox="0 0 26 43" fill="none" xmlns="http://www.w3.org/2000/svg">
<path d="M13.6271 20.1321C11.6545 20.1387 9.71679 20.653 8.00047 21.6254C10.4169 15.3707 14.4246 9.85548 19.6271 5.62539C19.9248 5.38026 20.1713 5.0789 20.3525 4.73851C20.5337 4.39813 20.646 4.02538 20.6832 3.64157C20.7203 3.25775 20.6815 2.87038 20.5689 2.50157C20.4564 2.13275 20.2723 1.78972 20.0271 1.49206C19.782 1.1944 19.4806 0.94793 19.1403 0.766734C18.7999 0.585538 18.4271 0.473161 18.0433 0.436017C17.6595 0.398874 17.2721 0.437694 16.9033 0.550257C16.5345 0.662821 16.1915 0.846925 15.8938 1.09206C5.22714 9.75873 0.480469 21.7587 0.480469 29.1987C0.498848 31.8294 1.28279 34.3977 2.73657 36.5903C4.19036 38.7828 6.25108 40.5046 8.66714 41.5454C10.2308 42.3029 11.9431 42.7036 13.6805 42.7187C15.2097 42.7931 16.7381 42.556 18.173 42.022C19.6079 41.488 20.9194 40.6682 22.0279 39.6122C23.1365 38.5562 24.0191 37.2861 24.6221 35.8788C25.2251 34.4715 25.5361 32.9564 25.5361 31.4254C25.5361 29.8944 25.2251 28.3793 24.6221 26.972C24.0191 25.5647 23.1365 24.2946 22.0279 23.2386C20.9194 22.1826 19.6079 21.3627 18.173 20.8287C16.7381 20.2947 15.2097 20.0577 13.6805 20.1321H13.6271Z" fill="black" fill-opacity="0.5"/>
</svg>
