<svg width="23" height="24" viewBox="0 0 23 24" fill="none" xmlns="http://www.w3.org/2000/svg">
<path d="M20.5175 14.8518L5.6138 23.1444C5.1044 23.4366 4.5242 23.5938 3.9317 23.5995C3.3278 23.5995 2.7353 23.442 2.216 23.1444C1.6964 22.8621 1.2635 22.4514 0.962 21.954C0.6605 21.4566 0.5012 20.8911 0.5 20.3148V3.66419C0.5009 3.08789 0.6605 2.52239 0.962 2.02529C1.2635 1.52819 1.6961 1.11749 2.216 0.834892C2.7275 0.549592 3.3077 0.399292 3.8981 0.399292C4.4885 0.399292 5.0687 0.549592 5.5802 0.834892L20.4839 9.12749C21.0179 9.40619 21.464 9.81929 21.7751 10.323C22.0862 10.8267 22.2503 11.4027 22.2503 11.9892C22.2503 12.5757 22.0862 13.1517 21.7751 13.6554C21.4643 14.1594 21.0179 14.5722 20.4839 14.8509H20.5175V14.8518Z" fill="white"/>
</svg>
