<svg width="20" height="16" viewBox="0 0 20 16" fill="none" xmlns="http://www.w3.org/2000/svg">
<path d="M0.699919 15.6999C0.399919 15.6 0.199819 15.1998 0.300019 14.8998C1.59992 8.39973 5.60012 4.19973 11.4999 3.19983V2.19993C11.4999 1.80002 11.7 1.29993 12 0.999925C12.6999 0.300025 13.8 0.300025 14.4999 0.900025L19.2 5.60013C19.8999 6.30003 19.8999 7.40013 19.2 8.10003L14.4999 12.8001C13.9998 13.3002 13.2 13.5 12.6 13.2C11.9001 12.9 11.4999 12.3 11.4999 11.6001V10.6002C6.99992 10.8003 3.90002 12.3003 1.59992 15.5001C1.50002 15.7002 1.20002 15.8001 0.999919 15.8001C0.900019 15.8001 0.799819 15.8001 0.699919 15.7002V15.6999ZM12.3 9.00003C12.6999 9.00003 12.9999 9.39993 12.9999 9.80013V11.5002C12.9999 11.6001 13.0998 11.7003 13.2 11.7003C13.3002 11.7003 13.4001 11.7003 13.5 11.6004L18.2001 6.90033C18.3 6.80043 18.3 6.60033 18.2001 6.50043L13.5 1.80032C13.4001 1.70042 13.2999 1.70043 13.2 1.70043C13.1001 1.90052 12.9999 2.00042 12.9999 2.10032V3.70022C12.9999 4.10012 12.6999 4.40013 12.3999 4.40013C7.99982 4.90023 4.20002 7.80003 2.70002 12C5.10002 9.99993 8.19992 9.00003 12.3 9.00003Z" fill="#3C4852"/>
</svg>
