<svg width="18" height="20" viewBox="0 0 18 20" fill="none" xmlns="http://www.w3.org/2000/svg">
<path d="M5.2099 11.46H4.0498C3.8122 11.46 3.6199 11.6526 3.6199 11.8899V15C3.6199 15.2376 3.8125 15.4299 4.0498 15.4299C4.2871 15.4299 4.4797 15.2373 4.4797 15V14.2299H5.1196C5.1739 14.2374 5.2363 14.2416 5.2999 14.2416C6.073 14.2416 6.7 13.6149 6.7 12.8415C6.7 12.8304 6.7 12.8193 6.6997 12.8082V12.8097C6.7 12.801 6.7 12.7905 6.7 12.78C6.7 12.0456 6.1045 11.4501 5.3701 11.4501C5.3137 11.4501 5.2579 11.4537 5.2033 11.4606L5.2099 11.46ZM5.8297 12.8298C5.8207 13.1598 5.5513 13.4238 5.2198 13.4238C5.1952 13.4238 5.1706 13.4223 5.1466 13.4196L5.1496 13.4199H4.4797V12.2298H5.1397C5.5597 12.2298 5.8297 12.4398 5.8297 12.8199V12.8298ZM8.8498 11.46H7.7599C7.5223 11.46 7.33 11.6526 7.33 11.8899V14.8899C7.33 15.1275 7.5226 15.3198 7.7599 15.3198H8.8498C8.8861 15.3222 8.9284 15.3237 8.971 15.3237C10.0423 15.3237 10.9111 14.4552 10.9111 13.3836C10.9111 13.3611 10.9108 13.3389 10.9099 13.3167V13.32C10.8736 12.2826 10.024 11.4555 8.9809 11.4555C8.9347 11.4555 8.8891 11.457 8.8438 11.4603L8.8498 11.46ZM9.9997 13.41C10.0006 13.4253 10.0009 13.4436 10.0009 13.4616C10.0009 14.0745 9.5038 14.5716 8.8909 14.5716C8.8693 14.5716 8.848 14.571 8.8267 14.5698H8.8297H8.1598V12.2298H8.8297C8.845 12.2289 8.863 12.2286 8.881 12.2286C9.4996 12.2286 10.0009 12.7299 10.0009 13.3485C10.0009 13.3665 10.0006 13.3845 9.9997 13.4022V13.3998V13.41ZM14.2798 11.46H12.0997C11.8621 11.46 11.6698 11.6526 11.6698 11.8899V15C11.6698 15.2376 11.8624 15.4299 12.0997 15.4299C12.337 15.4299 12.5296 15.2373 12.5296 15V13.8399H13.9996C14.215 13.8399 14.3896 13.6653 14.3896 13.4499C14.3896 13.2345 14.215 13.0599 13.9996 13.0599H12.4996V12.2298H14.2495C14.4364 12.1986 14.5774 12.0381 14.5774 11.8449C14.5774 11.6517 14.4367 11.4909 14.2519 11.4603L14.2495 11.46H14.2798ZM17.6899 5.70994C17.6497 5.61694 17.596 5.53744 17.5297 5.46994L12.5299 0.470144C12.4624 0.404144 12.3829 0.350144 12.295 0.312044L12.2899 0.310244C12.2053 0.272444 12.1063 0.250244 12.0022 0.250244C12.0013 0.250244 12.0007 0.250244 11.9998 0.250244H1C0.5881 0.255944 0.2557 0.588344 0.25 0.999644V19.0002C0.2557 19.4121 0.5881 19.7445 0.9994 19.7502H16.9999C17.4118 19.7445 17.7442 19.4121 17.7499 19.0008V6.00034C17.7499 5.99974 17.7499 5.99884 17.7499 5.99794C17.7499 5.89384 17.7277 5.79484 17.6881 5.70574L17.6899 5.71024V5.70994ZM12.7498 2.80984L15.1897 5.24974H12.7498V2.80984ZM1.7497 18.2499V1.74994H11.2498V6.00004C11.2555 6.41194 11.5879 6.74434 11.9992 6.75004H16.2496V18.2499H1.7497Z" fill="#3C4852"/>
</svg>
